<svg xmlns="http://www.w3.org/2000/svg" width="17.826" height="23.929" viewBox="0 0 17.826 23.929">
  <g id="mano-sosteniendo-una-cuchara" transform="translate(-44.676 0)">
    <g id="Group_354" data-name="Group 354" transform="translate(44.676 0)">
      <path id="Path_110" data-name="Path 110" d="M98.544,113.363a1.854,1.854,0,0,0,.061-1.543,1.666,1.666,0,0,0-.343-.488,2.378,2.378,0,0,0-.747-.491,1.767,1.767,0,0,0-.122-1.447,1.694,1.694,0,0,0-.245-.313c-.648-.663-1.137-.493-1.137-.493a2.009,2.009,0,0,0-.5-1.805c-.766-.749-1.494-.429-2.125.213L90.2,110.18a4.057,4.057,0,0,0-1.886-.511,1.984,1.984,0,0,0-1.82,1.744c-.414,1.642-.291,4.089-.76,5.035a8.069,8.069,0,0,1-1.706,2.139l4.428,4.429a12.386,12.386,0,0,1,4.832-2.812,13.772,13.772,0,0,0,5.106-3.485A2.4,2.4,0,0,0,98.544,113.363Z" transform="translate(-81.34 -99.086)" fill="#383838"/>
      <path id="Path_111" data-name="Path 111" d="M49.956,6.489c1.008.178,2.279,1.691,2.776,2.794l.474.481L54.367,8.6,53.9,8.131C52.8,7.617,51.23,6.4,51.066,5.395c.542-1,.312-2.763-1.142-4.238C49,.226,46.8-.663,45.375.7c-.008.006-.031.029-.037.035h0c-1.382,1.408-.3,3.681.495,4.486C47.288,6.7,48.952,7.018,49.956,6.489Z" transform="translate(-44.676 0)" fill="#383838"/>
    </g>
  </g>
</svg>
