<svg id="Group_1" data-name="Group 1" xmlns="http://www.w3.org/2000/svg" width="116.975" height="55.82" viewBox="0 0 116.975 55.82">
  <g id="Group_14" data-name="Group 14" transform="translate(12.74)">
    <path id="Path_20" data-name="Path 20" d="M384.4,190.248l9.714,11.041h6.674l-12.124-13.663,10.028-11.915h-5.765L384.4,185.95V175.712h-5.1v25.578h5.1Z" transform="translate(-347.739 -175.712)" fill="#f25c05"/>
    <path id="Path_21" data-name="Path 21" d="M449.971,217.79a9.4,9.4,0,0,0,6.988-2.551l-2.725-2.725a7.052,7.052,0,0,1-4.263,1.363,3.382,3.382,0,0,1-3.564-2.9h11.741v-1.712c0-4.927-3.145-8.526-8.177-8.526a8.526,8.526,0,1,0,0,17.051Zm0-13.138c1.677,0,3.495,1.014,3.425,2.9h-6.849C446.477,205.665,448.294,204.652,449.971,204.652Z" transform="translate(-388.713 -192.213)" fill="#f25c05"/>
    <path id="Path_22" data-name="Path 22" d="M291.3,236.872h-4.638v4.752h8.526v20.825h5.137V241.624h8.526v-4.752Z" transform="translate(-286.661 -216.036)" fill="#f25c05"/>
    <rect id="Rectangle_24" data-name="Rectangle 24" width="4.787" height="17.087" transform="translate(23.514 29.327)" fill="#f25c05"/>
    <path id="Path_23" data-name="Path 23" d="M381.643,278.949a9.4,9.4,0,0,0,6.988-2.551l-2.725-2.725a7.053,7.053,0,0,1-4.263,1.362,3.381,3.381,0,0,1-3.564-2.9H389.82v-1.712c0-4.927-3.144-8.526-8.177-8.526a8.526,8.526,0,1,0,0,17.051Zm0-13.138c1.677,0,3.495,1.013,3.425,2.9h-6.849C378.149,266.824,379.966,265.811,381.643,265.811Z" transform="translate(-343.663 -232.536)" fill="#f25c05"/>
    <path id="Path_24" data-name="Path 24" d="M442.477,278.881V268.293a6.266,6.266,0,0,0-6.639-6.464,5.728,5.728,0,0,0-4.089,1.538v-1.573h-4.786v17.087h4.786V268.014c.7-1.363,1.538-2.1,2.517-2.167,2.341.071,3.424,1.4,3.424,3.634v9.4Z" transform="translate(-379.165 -232.467)" fill="#f25c05"/>
    <path id="Path_25" data-name="Path 25" d="M475.572,270.423a8.222,8.222,0,0,0,8.526,8.526,9.4,9.4,0,0,0,6.988-2.551l-2.725-2.725a7.051,7.051,0,0,1-4.263,1.362,3.381,3.381,0,0,1-3.564-2.9h11.741v-1.712c0-4.927-3.144-8.526-8.177-8.526A8.2,8.2,0,0,0,475.572,270.423Zm8.526-4.612c1.677,0,3.494,1.013,3.425,2.9h-6.849C480.6,266.824,482.421,265.811,484.1,265.811Z" transform="translate(-411.214 -232.536)" fill="#f25c05"/>
  </g>
  <g id="Group_15" data-name="Group 15" transform="translate(0 20.82)">
    <path id="Path_26" data-name="Path 26" d="M366.049,245.387a2.518,2.518,0,0,0-2.336-1.563H352.626v-2.758a4.2,4.2,0,0,0-4.2-4.2h-5.367v4.749h4.814v2.758a4.2,4.2,0,0,0,4.2,4.2h6.275l-7.834,7.835a4.221,4.221,0,0,0-1.231,2.969v7.728H254.016V241.62h7.991v-4.748h-8.544a4.2,4.2,0,0,0-4.2,4.2V267.66a4.2,4.2,0,0,0,4.2,4.2h96.374a4.2,4.2,0,0,0,4.2-4.2v-8.052L365.5,248.143A2.519,2.519,0,0,0,366.049,245.387Zm-12.18,14.382h0Zm8.264-14.981.009-.009Z" transform="translate(-249.267 -236.855)" fill="#f25c05"/>
    <rect id="Rectangle_25" data-name="Rectangle 25" width="4.785" height="4.785" transform="translate(36.256)" fill="#f25c05"/>
  </g>
  <g id="Group_16" data-name="Group 16" transform="translate(106.028 43.56)">
    <path id="Path_27" data-name="Path 27" d="M566.137,308.763v-.142a.7.7,0,0,0-.061-.33.4.4,0,0,0-.207-.167.421.421,0,0,0,.25-.2.63.63,0,0,0,.075-.3.61.61,0,0,0-.038-.222.657.657,0,0,0-.106-.177.517.517,0,0,0-.2-.148.923.923,0,0,0-.333-.055h-1.007v2.106h.43v-.825h.43a.355.355,0,0,1,.251.067.4.4,0,0,1,.07.268l0,.2a.985.985,0,0,0,.019.181c.006.029.015.066.029.113h.486v-.053a.175.175,0,0,1-.081-.12A1.072,1.072,0,0,1,566.137,308.763Zm-.508-.841a.5.5,0,0,1-.212.035h-.474v-.566h.486a.431.431,0,0,1,.2.037.266.266,0,0,1,.121.257A.238.238,0,0,1,565.629,307.922Z" transform="translate(-563.142 -305.849)" fill="#f25c05"/>
    <path id="Path_28" data-name="Path 28" d="M562.718,303.574a2.229,2.229,0,1,0,2.229,2.229A2.232,2.232,0,0,0,562.718,303.574Zm0,4.092a1.863,1.863,0,1,1,1.863-1.863A1.865,1.865,0,0,1,562.718,307.666Z" transform="translate(-560.489 -303.574)" fill="#f25c05"/>
  </g>
</svg>
