<?xml version="1.0" encoding="UTF-8"?>
<svg xmlns="http://www.w3.org/2000/svg" xmlns:xlink="http://www.w3.org/1999/xlink" width="169.5pt" height="169.499993pt" viewBox="0 0 169.5 169.499993" version="1.2">
<defs>
<clipPath id="clip1">
  <path d="M 68 53.066406 L 94 53.066406 L 94 82 L 68 82 Z M 68 53.066406 "/>
</clipPath>
<clipPath id="clip2">
  <path d="M 18.488281 76 L 151.238281 76 L 151.238281 116.066406 L 18.488281 116.066406 Z M 18.488281 76 "/>
</clipPath>
</defs>
<g id="surface1">
<g clip-path="url(#clip1)" clip-rule="nonzero">
<path style=" stroke:none;fill-rule:nonzero;fill:rgb(85.099792%,85.099792%,85.099792%);fill-opacity:1;" d="M 74.554688 69.5 L 85.578125 81.9375 L 93.152344 81.9375 L 79.390625 66.546875 L 90.773438 53.128906 L 84.230469 53.128906 L 74.554688 64.660156 L 74.554688 53.128906 L 68.765625 53.128906 L 68.765625 81.9375 L 74.554688 81.9375 Z M 74.554688 69.5 "/>
</g>
<path style=" stroke:none;fill-rule:nonzero;fill:rgb(85.099792%,85.099792%,85.099792%);fill-opacity:1;" d="M 102.46875 81.9375 C 103.929688 82.019531 105.351562 81.8125 106.730469 81.3125 C 108.109375 80.8125 109.332031 80.0625 110.398438 79.0625 L 107.304688 75.996094 C 105.863281 77.042969 104.253906 77.554688 102.46875 77.53125 C 101.984375 77.5625 101.511719 77.503906 101.054688 77.355469 C 100.59375 77.210938 100.175781 76.984375 99.800781 76.683594 C 99.425781 76.378906 99.117188 76.019531 98.882812 75.601562 C 98.644531 75.183594 98.492188 74.738281 98.421875 74.265625 L 111.746094 74.265625 L 111.746094 72.335938 C 111.746094 66.785156 108.175781 62.730469 102.46875 62.730469 C 101.828125 62.726562 101.191406 62.78125 100.566406 62.898438 C 99.9375 63.015625 99.324219 63.195312 98.730469 63.433594 C 98.140625 63.671875 97.574219 63.964844 97.042969 64.3125 C 96.507812 64.664062 96.011719 65.0625 95.558594 65.507812 C 95.101562 65.953125 94.695312 66.441406 94.339844 66.96875 C 93.980469 67.492188 93.679688 68.050781 93.433594 68.636719 C 93.1875 69.222656 93 69.824219 92.875 70.449219 C 92.75 71.070312 92.6875 71.699219 92.6875 72.335938 C 92.6875 72.96875 92.75 73.597656 92.875 74.222656 C 93 74.84375 93.1875 75.449219 93.433594 76.035156 C 93.679688 76.621094 93.980469 77.175781 94.339844 77.703125 C 94.695312 78.230469 95.101562 78.714844 95.558594 79.164062 C 96.011719 79.609375 96.507812 80.007812 97.042969 80.355469 C 97.574219 80.707031 98.140625 81 98.730469 81.238281 C 99.324219 81.476562 99.9375 81.652344 100.566406 81.769531 C 101.191406 81.890625 101.828125 81.945312 102.46875 81.9375 Z M 102.46875 67.140625 C 104.371094 67.140625 106.433594 68.28125 106.355469 70.40625 L 98.582031 70.40625 C 98.5 68.28125 100.5625 67.140625 102.46875 67.140625 Z M 102.46875 67.140625 "/>
<path style=" stroke:none;fill-rule:nonzero;fill:rgb(85.099792%,85.099792%,85.099792%);fill-opacity:1;" d="M 38.210938 76.597656 L 32.949219 76.597656 L 32.949219 81.949219 L 42.625 81.949219 L 42.625 105.40625 L 48.453125 105.40625 L 48.453125 81.949219 L 58.128906 81.949219 L 58.128906 76.597656 Z M 38.210938 76.597656 "/>
<path style=" stroke:none;fill-rule:nonzero;fill:rgb(85.099792%,85.099792%,85.099792%);fill-opacity:1;" d="M 59.632812 86.160156 L 65.066406 86.160156 L 65.066406 105.40625 L 59.632812 105.40625 Z M 59.632812 86.160156 "/>
<path style=" stroke:none;fill-rule:nonzero;fill:rgb(85.099792%,85.099792%,85.099792%);fill-opacity:1;" d="M 76.050781 105.40625 C 77.515625 105.488281 78.9375 105.28125 80.3125 104.78125 C 81.691406 104.28125 82.914062 103.53125 83.980469 102.535156 L 80.886719 99.464844 C 79.449219 100.511719 77.835938 101.023438 76.050781 100.996094 C 75.566406 101.027344 75.097656 100.972656 74.636719 100.824219 C 74.175781 100.679688 73.757812 100.453125 73.382812 100.152344 C 73.007812 99.847656 72.703125 99.488281 72.464844 99.070312 C 72.226562 98.652344 72.074219 98.207031 72.003906 97.730469 L 85.328125 97.730469 L 85.328125 95.804688 C 85.328125 90.253906 81.761719 86.199219 76.050781 86.199219 C 75.410156 86.191406 74.777344 86.25 74.148438 86.367188 C 73.519531 86.484375 72.90625 86.664062 72.316406 86.902344 C 71.722656 87.140625 71.160156 87.433594 70.625 87.78125 C 70.089844 88.132812 69.59375 88.527344 69.140625 88.976562 C 68.6875 89.421875 68.28125 89.910156 67.921875 90.433594 C 67.566406 90.960938 67.261719 91.519531 67.015625 92.105469 C 66.769531 92.691406 66.582031 93.292969 66.457031 93.917969 C 66.332031 94.539062 66.269531 95.167969 66.269531 95.800781 C 66.269531 96.4375 66.332031 97.066406 66.457031 97.6875 C 66.582031 98.3125 66.769531 98.914062 67.015625 99.5 C 67.261719 100.085938 67.566406 100.644531 67.921875 101.171875 C 68.28125 101.695312 68.6875 102.183594 69.140625 102.628906 C 69.59375 103.078125 70.089844 103.472656 70.625 103.824219 C 71.160156 104.171875 71.722656 104.464844 72.316406 104.703125 C 72.90625 104.941406 73.519531 105.121094 74.148438 105.238281 C 74.777344 105.355469 75.410156 105.414062 76.050781 105.40625 Z M 76.050781 90.609375 C 77.953125 90.609375 80.015625 91.75 79.9375 93.875 L 72.164062 93.875 C 72.085938 91.75 74.148438 90.609375 76.050781 90.609375 Z M 76.050781 90.609375 "/>
<path style=" stroke:none;fill-rule:nonzero;fill:rgb(85.099792%,85.099792%,85.099792%);fill-opacity:1;" d="M 104.796875 105.40625 L 104.796875 93.480469 C 104.816406 92.992188 104.78125 92.503906 104.695312 92.019531 C 104.609375 91.535156 104.472656 91.066406 104.289062 90.609375 C 104.101562 90.15625 103.871094 89.722656 103.597656 89.316406 C 103.320312 88.90625 103.007812 88.53125 102.652344 88.1875 C 102.296875 87.847656 101.910156 87.542969 101.492188 87.28125 C 101.074219 87.019531 100.632812 86.800781 100.167969 86.628906 C 99.707031 86.460938 99.230469 86.335938 98.738281 86.265625 C 98.25 86.191406 97.757812 86.171875 97.265625 86.199219 C 96.40625 86.175781 95.574219 86.3125 94.769531 86.609375 C 93.96875 86.910156 93.25 87.351562 92.625 87.933594 L 92.625 86.160156 L 87.191406 86.160156 L 87.191406 105.40625 L 92.625 105.40625 L 92.625 93.167969 C 93.417969 91.632812 94.367188 90.800781 95.480469 90.726562 C 98.136719 90.808594 99.367188 92.304688 99.367188 94.820312 L 99.367188 105.40625 Z M 104.796875 105.40625 "/>
<path style=" stroke:none;fill-rule:nonzero;fill:rgb(85.099792%,85.099792%,85.099792%);fill-opacity:1;" d="M 105.984375 95.804688 C 105.960938 96.441406 106.003906 97.074219 106.109375 97.703125 C 106.21875 98.328125 106.386719 98.941406 106.621094 99.535156 C 106.859375 100.128906 107.152344 100.691406 107.503906 101.222656 C 107.855469 101.757812 108.257812 102.25 108.710938 102.699219 C 109.164062 103.152344 109.660156 103.550781 110.199219 103.902344 C 110.734375 104.25 111.304688 104.539062 111.902344 104.773438 C 112.5 105.007812 113.113281 105.175781 113.75 105.28125 C 114.382812 105.390625 115.019531 105.429688 115.660156 105.40625 C 117.125 105.488281 118.546875 105.28125 119.925781 104.78125 C 121.300781 104.28125 122.523438 103.53125 123.589844 102.535156 L 120.5 99.464844 C 119.058594 100.511719 117.445312 101.023438 115.660156 100.996094 C 115.179688 101.027344 114.707031 100.972656 114.246094 100.824219 C 113.785156 100.679688 113.367188 100.453125 112.992188 100.152344 C 112.617188 99.847656 112.3125 99.488281 112.074219 99.070312 C 111.835938 98.652344 111.683594 98.207031 111.617188 97.730469 L 124.941406 97.730469 L 124.941406 95.804688 C 124.941406 90.253906 121.371094 86.199219 115.660156 86.199219 C 115.019531 86.175781 114.378906 86.214844 113.746094 86.320312 C 113.113281 86.425781 112.496094 86.59375 111.898438 86.824219 C 111.296875 87.058594 110.730469 87.347656 110.191406 87.695312 C 109.652344 88.046875 109.15625 88.445312 108.703125 88.898438 C 108.25 89.347656 107.84375 89.839844 107.492188 90.375 C 107.140625 90.910156 106.847656 91.472656 106.617188 92.066406 C 106.382812 92.660156 106.210938 93.273438 106.105469 93.902344 C 106 94.53125 105.960938 95.164062 105.984375 95.804688 Z M 115.660156 90.609375 C 117.5625 90.609375 119.625 91.75 119.546875 93.875 L 111.773438 93.875 C 111.691406 91.75 113.757812 90.609375 115.664062 90.609375 Z M 115.660156 90.609375 "/>
<g clip-path="url(#clip2)" clip-rule="nonzero">
<path style=" stroke:none;fill-rule:nonzero;fill:rgb(85.099792%,85.099792%,85.099792%);fill-opacity:1;" d="M 151.019531 86.191406 C 150.800781 85.65625 150.449219 85.230469 149.964844 84.910156 C 149.484375 84.585938 148.949219 84.429688 148.371094 84.429688 L 135.789062 84.429688 L 135.789062 81.324219 C 135.789062 81.011719 135.757812 80.703125 135.695312 80.398438 C 135.636719 80.09375 135.542969 79.800781 135.425781 79.511719 C 135.304688 79.226562 135.15625 78.953125 134.984375 78.695312 C 134.808594 78.4375 134.613281 78.199219 134.390625 77.976562 C 134.171875 77.757812 133.929688 77.5625 133.667969 77.390625 C 133.410156 77.214844 133.132812 77.070312 132.84375 76.953125 C 132.554688 76.832031 132.257812 76.742188 131.949219 76.683594 C 131.644531 76.621094 131.335938 76.59375 131.019531 76.59375 L 124.929688 76.59375 L 124.929688 81.941406 L 130.394531 81.941406 L 130.394531 85.046875 C 130.394531 85.359375 130.425781 85.664062 130.484375 85.96875 C 130.546875 86.273438 130.636719 86.570312 130.757812 86.859375 C 130.875 87.144531 131.023438 87.417969 131.195312 87.675781 C 131.371094 87.933594 131.566406 88.171875 131.789062 88.394531 C 132.011719 88.613281 132.25 88.808594 132.511719 88.980469 C 132.773438 89.152344 133.046875 89.300781 133.335938 89.417969 C 133.625 89.535156 133.921875 89.625 134.230469 89.6875 C 134.535156 89.746094 134.847656 89.777344 135.160156 89.777344 L 142.28125 89.777344 L 133.390625 98.601562 C 132.460938 99.527344 131.996094 100.640625 131.992188 101.949219 L 131.992188 110.652344 L 23.878906 110.652344 L 23.878906 81.945312 L 32.949219 81.945312 L 32.949219 76.597656 L 23.25 76.597656 C 22.9375 76.597656 22.628906 76.628906 22.320312 76.691406 C 22.015625 76.75 21.71875 76.839844 21.425781 76.957031 C 21.136719 77.078125 20.863281 77.222656 20.605469 77.394531 C 20.34375 77.570312 20.101562 77.765625 19.882812 77.984375 C 19.660156 78.203125 19.460938 78.441406 19.289062 78.703125 C 19.113281 78.960938 18.96875 79.230469 18.847656 79.519531 C 18.726562 79.804688 18.636719 80.101562 18.578125 80.40625 C 18.515625 80.710938 18.484375 81.019531 18.484375 81.328125 L 18.484375 111.277344 C 18.484375 111.585938 18.515625 111.894531 18.578125 112.199219 C 18.636719 112.503906 18.726562 112.800781 18.847656 113.085938 C 18.96875 113.375 19.113281 113.648438 19.289062 113.90625 C 19.460938 114.164062 19.660156 114.402344 19.882812 114.621094 C 20.101562 114.84375 20.34375 115.039062 20.605469 115.210938 C 20.863281 115.382812 21.136719 115.527344 21.425781 115.648438 C 21.714844 115.765625 22.015625 115.855469 22.320312 115.917969 C 22.628906 115.976562 22.9375 116.007812 23.25 116.007812 L 132.621094 116.007812 C 132.933594 116.007812 133.246094 115.976562 133.550781 115.917969 C 133.859375 115.855469 134.15625 115.765625 134.445312 115.648438 C 134.734375 115.527344 135.011719 115.382812 135.269531 115.210938 C 135.53125 115.039062 135.773438 114.84375 135.992188 114.621094 C 136.214844 114.402344 136.410156 114.164062 136.585938 113.90625 C 136.757812 113.648438 136.90625 113.375 137.027344 113.085938 C 137.144531 112.800781 137.234375 112.503906 137.296875 112.199219 C 137.359375 111.894531 137.390625 111.585938 137.390625 111.277344 L 137.390625 102.207031 L 150.398438 89.292969 C 150.808594 88.886719 151.074219 88.402344 151.1875 87.835938 C 151.300781 87.269531 151.246094 86.722656 151.019531 86.191406 Z M 137.199219 102.390625 Z M 146.578125 85.515625 L 146.585938 85.503906 Z M 146.578125 85.515625 "/>
</g>
<path style=" stroke:none;fill-rule:nonzero;fill:rgb(85.099792%,85.099792%,85.099792%);fill-opacity:1;" d="M 59.636719 76.578125 L 65.066406 76.578125 L 65.066406 81.96875 L 59.636719 81.96875 Z M 59.636719 76.578125 "/>
<path style=" stroke:none;fill-rule:nonzero;fill:rgb(85.099792%,85.099792%,85.099792%);fill-opacity:1;" d="M 142.214844 105.476562 L 142.214844 105.316406 C 142.222656 105.1875 142.199219 105.0625 142.144531 104.945312 C 142.089844 104.855469 142.011719 104.789062 141.910156 104.753906 C 142.035156 104.71875 142.132812 104.644531 142.195312 104.53125 C 142.253906 104.425781 142.28125 104.3125 142.28125 104.191406 C 142.28125 104.105469 142.265625 104.023438 142.238281 103.941406 C 142.207031 103.871094 142.167969 103.804688 142.117188 103.742188 C 142.054688 103.667969 141.980469 103.613281 141.890625 103.578125 C 141.765625 103.53125 141.640625 103.511719 141.511719 103.515625 L 140.367188 103.515625 L 140.367188 105.886719 L 140.855469 105.886719 L 140.855469 104.957031 L 141.34375 104.957031 C 141.449219 104.945312 141.542969 104.96875 141.628906 105.03125 C 141.695312 105.125 141.71875 105.222656 141.710938 105.335938 L 141.710938 105.558594 C 141.710938 105.628906 141.71875 105.695312 141.730469 105.765625 C 141.738281 105.796875 141.746094 105.839844 141.761719 105.890625 L 142.316406 105.890625 L 142.316406 105.832031 C 142.265625 105.800781 142.234375 105.753906 142.222656 105.695312 C 142.214844 105.621094 142.210938 105.550781 142.214844 105.476562 Z M 141.640625 104.527344 C 141.5625 104.558594 141.480469 104.570312 141.398438 104.566406 L 140.859375 104.566406 L 140.859375 103.929688 L 141.410156 103.929688 C 141.492188 103.925781 141.566406 103.941406 141.640625 103.972656 C 141.746094 104.039062 141.792969 104.136719 141.777344 104.261719 C 141.789062 104.378906 141.746094 104.46875 141.640625 104.527344 Z M 141.640625 104.527344 "/>
<path style=" stroke:none;fill-rule:nonzero;fill:rgb(85.099792%,85.099792%,85.099792%);fill-opacity:1;" d="M 141.347656 102.191406 C 141.011719 102.191406 140.6875 102.257812 140.378906 102.382812 C 140.066406 102.511719 139.792969 102.691406 139.558594 102.929688 C 139.320312 103.164062 139.136719 103.433594 139.007812 103.742188 C 138.878906 104.050781 138.816406 104.371094 138.816406 104.703125 C 138.816406 105.035156 138.878906 105.355469 139.007812 105.664062 C 139.136719 105.972656 139.320312 106.242188 139.558594 106.480469 C 139.792969 106.714844 140.066406 106.894531 140.378906 107.023438 C 140.6875 107.152344 141.011719 107.214844 141.347656 107.214844 C 141.679688 107.214844 142.003906 107.152344 142.3125 107.023438 C 142.625 106.894531 142.898438 106.714844 143.132812 106.480469 C 143.371094 106.242188 143.554688 105.972656 143.683594 105.664062 C 143.8125 105.355469 143.875 105.035156 143.875 104.703125 C 143.875 104.371094 143.8125 104.050781 143.683594 103.742188 C 143.554688 103.4375 143.371094 103.164062 143.132812 102.929688 C 142.898438 102.695312 142.625 102.511719 142.3125 102.386719 C 142.003906 102.257812 141.679688 102.195312 141.347656 102.191406 Z M 141.347656 106.800781 C 141.066406 106.800781 140.796875 106.75 140.535156 106.640625 C 140.277344 106.535156 140.050781 106.382812 139.851562 106.1875 C 139.652344 105.992188 139.5 105.765625 139.394531 105.507812 C 139.285156 105.25 139.230469 104.980469 139.230469 104.703125 C 139.230469 104.425781 139.285156 104.15625 139.394531 103.902344 C 139.5 103.644531 139.652344 103.417969 139.851562 103.21875 C 140.050781 103.023438 140.277344 102.871094 140.535156 102.765625 C 140.796875 102.660156 141.066406 102.605469 141.347656 102.605469 C 141.625 102.605469 141.894531 102.660156 142.15625 102.765625 C 142.414062 102.871094 142.644531 103.023438 142.839844 103.21875 C 143.039062 103.417969 143.191406 103.644531 143.300781 103.902344 C 143.40625 104.15625 143.460938 104.425781 143.460938 104.703125 C 143.460938 104.980469 143.40625 105.25 143.300781 105.507812 C 143.191406 105.761719 143.039062 105.988281 142.839844 106.1875 C 142.640625 106.382812 142.414062 106.535156 142.15625 106.640625 C 141.894531 106.75 141.625 106.800781 141.347656 106.800781 Z M 141.347656 106.800781 "/>
</g>
</svg>
